<svg width="166" height="39" viewBox="0 0 166 39" fill="none" xmlns="http://www.w3.org/2000/svg">
<path d="M20.5191 21V5.59892H30.3854V7.93766H23.309V12.1188H29.7086V14.4575H23.309V21H20.5191ZM50.9241 13.2995C50.9241 14.9589 50.6133 16.3802 49.9916 17.5633C49.375 18.7415 48.5328 19.6439 47.4649 20.2705C46.4021 20.8972 45.1964 21.2106 43.8478 21.2106C42.4992 21.2106 41.2909 20.8972 40.2231 20.2705C39.1603 19.6389 38.318 18.7339 37.6964 17.5558C37.0797 16.3727 36.7714 14.9539 36.7714 13.2995C36.7714 11.64 37.0797 10.2212 37.6964 9.04311C38.318 7.85995 39.1603 6.95504 40.2231 6.32837C41.2909 5.7017 42.4992 5.38836 43.8478 5.38836C45.1964 5.38836 46.4021 5.7017 47.4649 6.32837C48.5328 6.95504 49.375 7.85995 49.9916 9.04311C50.6133 10.2212 50.9241 11.64 50.9241 13.2995ZM48.1192 13.2995C48.1192 12.1313 47.9362 11.1462 47.5702 10.3441C47.2092 9.53692 46.7079 8.9278 46.0662 8.5167C45.4245 8.10059 44.685 7.89254 43.8478 7.89254C43.0105 7.89254 42.2711 8.10059 41.6293 8.5167C40.9876 8.9278 40.4838 9.53692 40.1178 10.3441C39.7569 11.1462 39.5764 12.1313 39.5764 13.2995C39.5764 14.4676 39.7569 15.4552 40.1178 16.2624C40.4838 17.0645 40.9876 17.6736 41.6293 18.0897C42.2711 18.5008 43.0105 18.7064 43.8478 18.7064C44.685 18.7064 45.4245 18.5008 46.0662 18.0897C46.7079 17.6736 47.2092 17.0645 47.5702 16.2624C47.9362 15.4552 48.1192 14.4676 48.1192 13.2995ZM57.7971 21V5.59892H63.5725C64.7556 5.59892 65.7483 5.80447 66.5504 6.21557C67.3576 6.62666 67.9667 7.2032 68.3778 7.94518C68.7939 8.68214 69.002 9.54194 69.002 10.5246C69.002 11.5122 68.7914 12.3695 68.3703 13.0964C67.9542 13.8183 67.34 14.3773 66.5279 14.7734C65.7157 15.1644 64.718 15.36 63.5349 15.36H59.4214V13.0438H63.1589C63.8507 13.0438 64.4172 12.9485 64.8584 12.758C65.2996 12.5625 65.6255 12.2792 65.836 11.9082C66.0516 11.5322 66.1594 11.071 66.1594 10.5246C66.1594 9.9781 66.0516 9.51186 65.836 9.12583C65.6204 8.73478 65.2921 8.439 64.8509 8.23846C64.4097 8.03291 63.8407 7.93014 63.1438 7.93014H60.587V21H57.7971ZM65.7533 14.0214L69.566 21H66.4527L62.7077 14.0214H65.7533ZM75.1286 7.93766V5.59892H87.4163V7.93766H82.6561V21H79.8887V7.93766H75.1286ZM103.729 5.59892H106.519V15.6608C106.519 16.7637 106.258 17.7338 105.737 18.571C105.22 19.4082 104.493 20.0625 103.556 20.5337C102.618 21 101.523 21.2331 100.27 21.2331C99.0112 21.2331 97.9133 21 96.9758 20.5337C96.0383 20.0625 95.3114 19.4082 94.795 18.571C94.2786 17.7338 94.0204 16.7637 94.0204 15.6608V5.59892H96.8104V15.4276C96.8104 16.0693 96.9507 16.6409 97.2315 17.1422C97.5173 17.6435 97.9183 18.0371 98.4347 18.3229C98.9511 18.6036 99.5627 18.744 100.27 18.744C100.976 18.744 101.588 18.6036 102.104 18.3229C102.626 18.0371 103.027 17.6435 103.308 17.1422C103.588 16.6409 103.729 16.0693 103.729 15.4276V5.59892ZM126.443 5.59892V21H123.961L116.704 10.5095H116.576V21H113.787V5.59892H116.283L123.533 16.0969H123.668V5.59892H126.443ZM133.718 21V5.59892H143.735V7.93766H136.508V12.1188H143.216V14.4575H136.508V18.6613H143.795V21H133.718Z" fill="white"/>
<path d="M0.759525 36V28.2995H3.64723C4.2388 28.2995 4.73513 28.4022 5.1362 28.6078C5.53977 28.8133 5.84434 29.1016 6.04988 29.4726C6.25794 29.8411 6.36197 30.271 6.36197 30.7623C6.36197 31.2561 6.25669 31.6847 6.04612 32.0482C5.83807 32.4092 5.531 32.6887 5.12492 32.8867C4.71883 33.0822 4.22 33.18 3.62843 33.18H1.57169V32.0219H3.44042C3.78635 32.0219 4.0696 31.9743 4.29019 31.879C4.51078 31.7812 4.67371 31.6396 4.77899 31.4541C4.88678 31.2661 4.94068 31.0355 4.94068 30.7623C4.94068 30.489 4.88678 30.2559 4.77899 30.0629C4.67121 29.8674 4.50702 29.7195 4.28643 29.6192C4.06584 29.5165 3.78133 29.4651 3.4329 29.4651H2.1545V36H0.759525ZM4.73763 32.5107L6.64397 36H5.08732L3.21482 32.5107H4.73763ZM30.4092 32.1497C30.4092 32.9794 30.2538 33.6901 29.943 34.2817C29.6347 34.8707 29.2135 35.3219 28.6796 35.6353C28.1482 35.9486 27.5453 36.1053 26.871 36.1053C26.1967 36.1053 25.5926 35.9486 25.0587 35.6353C24.5273 35.3194 24.1062 34.867 23.7953 34.2779C23.487 33.6863 23.3328 32.9769 23.3328 32.1497C23.3328 31.32 23.487 30.6106 23.7953 30.0215C24.1062 29.43 24.5273 28.9775 25.0587 28.6642C25.5926 28.3508 26.1967 28.1942 26.871 28.1942C27.5453 28.1942 28.1482 28.3508 28.6796 28.6642C29.2135 28.9775 29.6347 29.43 29.943 30.0215C30.2538 30.6106 30.4092 31.32 30.4092 32.1497ZM29.0067 32.1497C29.0067 31.5657 28.9152 31.0731 28.7322 30.672C28.5518 30.2685 28.3011 29.9639 27.9802 29.7583C27.6594 29.5503 27.2896 29.4463 26.871 29.4463C26.4524 29.4463 26.0827 29.5503 25.7618 29.7583C25.441 29.9639 25.189 30.2685 25.0061 30.672C24.8256 31.0731 24.7353 31.5657 24.7353 32.1497C24.7353 32.7338 24.8256 33.2276 25.0061 33.6312C25.189 34.0322 25.441 34.3368 25.7618 34.5449C26.0827 34.7504 26.4524 34.8532 26.871 34.8532C27.2896 34.8532 27.6594 34.7504 27.9802 34.5449C28.3011 34.3368 28.5518 34.0322 28.7322 33.6312C28.9152 33.2276 29.0067 32.7338 29.0067 32.1497ZM47.6104 36V28.2995H50.5583C51.1147 28.2995 51.5772 28.3872 51.9457 28.5627C52.3167 28.7356 52.5937 28.9725 52.7767 29.2733C52.9622 29.5741 53.0549 29.915 53.0549 30.296C53.0549 30.6094 52.9948 30.8776 52.8744 31.1007C52.7541 31.3213 52.5924 31.5005 52.3894 31.6384C52.1864 31.7762 51.9595 31.8752 51.7088 31.9354V32.0106C51.9821 32.0256 52.244 32.1096 52.4947 32.2625C52.7479 32.4129 52.9547 32.626 53.1151 32.9017C53.2755 33.1775 53.3557 33.5109 53.3557 33.9019C53.3557 34.3005 53.2592 34.6589 53.0662 34.9773C52.8732 35.2931 52.5824 35.5425 52.1939 35.7255C51.8053 35.9085 51.3165 36 50.7275 36H47.6104ZM49.0054 34.8344H50.5056C51.012 34.8344 51.3767 34.7379 51.5998 34.5449C51.8254 34.3493 51.9382 34.0987 51.9382 33.7929C51.9382 33.5647 51.8818 33.3592 51.769 33.1762C51.6562 32.9907 51.4958 32.8453 51.2877 32.74C51.0797 32.6323 50.8315 32.5784 50.5432 32.5784H49.0054V34.8344ZM49.0054 31.5744H50.3853C50.6259 31.5744 50.8428 31.5306 51.0358 31.4428C51.2288 31.3526 51.3805 31.226 51.4907 31.0631C51.6035 30.8976 51.66 30.7021 51.66 30.4765C51.66 30.1782 51.5547 29.9326 51.3441 29.7395C51.1361 29.5465 50.8265 29.45 50.4154 29.45H49.0054V31.5744ZM77.3325 32.1497C77.3325 32.9794 77.1771 33.6901 76.8662 34.2817C76.5579 34.8707 76.1368 35.3219 75.6029 35.6353C75.0714 35.9486 74.4686 36.1053 73.7943 36.1053C73.12 36.1053 72.5159 35.9486 71.982 35.6353C71.4505 35.3194 71.0294 34.867 70.7186 34.2779C70.4103 33.6863 70.2561 32.9769 70.2561 32.1497C70.2561 31.32 70.4103 30.6106 70.7186 30.0215C71.0294 29.43 71.4505 28.9775 71.982 28.6642C72.5159 28.3508 73.12 28.1942 73.7943 28.1942C74.4686 28.1942 75.0714 28.3508 75.6029 28.6642C76.1368 28.9775 76.5579 29.43 76.8662 30.0215C77.1771 30.6106 77.3325 31.32 77.3325 32.1497ZM75.93 32.1497C75.93 31.5657 75.8385 31.0731 75.6555 30.672C75.475 30.2685 75.2244 29.9639 74.9035 29.7583C74.5826 29.5503 74.2129 29.4463 73.7943 29.4463C73.3757 29.4463 73.0059 29.5503 72.6851 29.7583C72.3642 29.9639 72.1123 30.2685 71.9293 30.672C71.7488 31.0731 71.6586 31.5657 71.6586 32.1497C71.6586 32.7338 71.7488 33.2276 71.9293 33.6312C72.1123 34.0322 72.3642 34.3368 72.6851 34.5449C73.0059 34.7504 73.3757 34.8532 73.7943 34.8532C74.2129 34.8532 74.5826 34.7504 74.9035 34.5449C75.2244 34.3368 75.475 34.0322 75.6555 33.6312C75.8385 33.2276 75.93 32.7338 75.93 32.1497ZM93.854 29.4688V28.2995H99.9979V29.4688H97.6178V36H96.2341V29.4688H93.854ZM118.46 28.2995V36H117.065V28.2995H118.46ZM142.444 30.8976H141.038C140.998 30.667 140.924 30.4627 140.816 30.2848C140.708 30.1043 140.574 29.9514 140.414 29.826C140.253 29.7007 140.07 29.6067 139.865 29.544C139.661 29.4789 139.442 29.4463 139.207 29.4463C138.788 29.4463 138.417 29.5515 138.094 29.7621C137.77 29.9702 137.517 30.276 137.334 30.6796C137.151 31.0806 137.06 31.5707 137.06 32.1497C137.06 32.7388 137.151 33.2351 137.334 33.6387C137.52 34.0398 137.773 34.3431 138.094 34.5486C138.417 34.7517 138.787 34.8532 139.203 34.8532C139.433 34.8532 139.649 34.8231 139.849 34.7629C140.053 34.7003 140.234 34.6088 140.395 34.4885C140.558 34.3681 140.694 34.2202 140.805 34.0448C140.917 33.8693 140.995 33.6688 141.038 33.4432L142.444 33.4507C142.391 33.8167 142.277 34.1601 142.102 34.4809C141.929 34.8018 141.702 35.0851 141.421 35.3307C141.14 35.5739 140.812 35.7644 140.436 35.9022C140.06 36.0376 139.643 36.1053 139.184 36.1053C138.507 36.1053 137.903 35.9486 137.372 35.6353C136.84 35.3219 136.422 34.8695 136.116 34.2779C135.81 33.6863 135.657 32.9769 135.657 32.1497C135.657 31.32 135.811 30.6106 136.12 30.0215C136.428 29.43 136.848 28.9775 137.379 28.6642C137.911 28.3508 138.512 28.1942 139.184 28.1942C139.613 28.1942 140.011 28.2543 140.38 28.3747C140.748 28.495 141.077 28.6717 141.365 28.9048C141.653 29.1354 141.89 29.4187 142.075 29.7546C142.263 30.088 142.386 30.469 142.444 30.8976ZM163.789 30.4164C163.754 30.088 163.606 29.8323 163.345 29.6493C163.087 29.4663 162.751 29.3748 162.337 29.3748C162.047 29.3748 161.797 29.4187 161.589 29.5064C161.381 29.5942 161.222 29.7132 161.112 29.8636C161.001 30.014 160.945 30.1857 160.942 30.3788C160.942 30.5392 160.979 30.6783 161.051 30.7961C161.127 30.9139 161.228 31.0142 161.356 31.0969C161.484 31.1771 161.625 31.2448 161.781 31.3C161.936 31.3551 162.093 31.4015 162.251 31.4391L162.973 31.6196C163.264 31.6872 163.543 31.7787 163.811 31.894C164.082 32.0094 164.324 32.1547 164.537 32.3302C164.752 32.5057 164.923 32.7175 165.048 32.9657C165.174 33.2138 165.236 33.5046 165.236 33.838C165.236 34.2892 165.121 34.6865 164.89 35.0299C164.66 35.3708 164.326 35.6378 163.89 35.8308C163.457 36.0213 162.931 36.1166 162.315 36.1166C161.716 36.1166 161.195 36.0238 160.754 35.8383C160.316 35.6528 159.972 35.3821 159.724 35.0261C159.478 34.6702 159.346 34.2365 159.326 33.7252H160.698C160.718 33.9934 160.801 34.2165 160.946 34.3945C161.091 34.5724 161.281 34.7053 161.514 34.793C161.749 34.8808 162.013 34.9246 162.303 34.9246C162.607 34.9246 162.872 34.8795 163.101 34.7893C163.331 34.6965 163.512 34.5687 163.642 34.4057C163.772 34.2403 163.839 34.0473 163.841 33.8267C163.839 33.6262 163.78 33.4607 163.665 33.3304C163.549 33.1975 163.388 33.0872 163.18 32.9995C162.974 32.9093 162.733 32.829 162.458 32.7588L161.582 32.5332C160.947 32.3703 160.446 32.1234 160.078 31.7925C159.712 31.4591 159.529 31.0167 159.529 30.4652C159.529 30.0115 159.651 29.6142 159.897 29.2733C160.145 28.9324 160.482 28.6679 160.908 28.4799C161.335 28.2894 161.817 28.1942 162.356 28.1942C162.903 28.1942 163.381 28.2894 163.792 28.4799C164.206 28.6679 164.531 28.9299 164.766 29.2658C165.002 29.5992 165.123 29.9827 165.131 30.4164H163.789Z" fill="white"/>
</svg>
